<svg width="162" height="78" viewBox="0 0 162 78" fill="none" xmlns="http://www.w3.org/2000/svg">
<g clip-path="url(#clip0_3_743)">
<path fill-rule="evenodd" clip-rule="evenodd" d="M36.227 67.2796C39.3265 65.3557 41.9316 63.0081 44.1357 60.5634C45.7137 63.7861 48.8804 65.9858 52.2384 65.9858C54.826 65.9858 57.4137 64.692 59.1927 62.266C59.8397 64.5302 61.457 65.9858 64.2064 65.9858C66.2696 65.9858 70.7676 63.8801 74.846 60.76L74.3952 63.0746C74.2335 63.7215 74.2335 64.2067 74.2335 64.5302C74.3952 65.5005 75.0421 65.9857 76.0125 65.9857C77.9532 65.9857 80.7026 64.2067 81.3496 61.2956L82.3199 57.2523C83.4521 52.077 91.0534 44.3139 93.1558 44.3139C93.3176 44.3139 93.641 44.4757 93.641 44.7991C93.7052 45.3126 93.3363 46.2847 92.7972 47.7053C91.978 49.864 90.7657 53.0582 90.083 57.2523C89.7595 58.5462 89.7595 59.84 89.9212 60.8104C90.2447 63.8832 92.0237 65.9857 95.4201 65.9857C98.3265 65.9857 104.628 63.5047 109.045 58.5427C109.378 61.2361 109.947 63.5271 110.784 65.0154C111.108 65.6623 111.917 65.8241 112.725 65.8241C113.696 65.8241 114.989 65.5006 116.445 64.692C119.841 62.9129 124.208 58.708 128.413 52.5622C129.06 52.724 129.545 52.724 130.03 52.724C131.708 52.724 133.584 52.1317 135.325 51.0837C134.602 53.2692 134.319 55.5012 134.559 57.5758C135.206 62.4277 139.249 66.1475 143.616 66.1475C146.042 66.1475 148.629 64.6919 150.408 62.4277C151.055 65.5005 152.996 68.7351 157.848 70.6759C158.171 70.8376 158.495 70.8376 158.818 70.8376C159.789 70.8376 160.436 70.1907 160.274 69.3821C160.274 69.0586 160.112 68.5734 159.627 68.2499C158.495 67.2796 157.201 65.5005 156.878 62.7511C156.716 61.4573 156.716 59.84 157.524 58.2227C158.495 53.856 158.657 52.5622 158.657 52.077C158.495 50.9449 157.686 50.4597 156.716 50.4597C154.775 50.4597 152.026 52.4004 151.379 55.1498C150.247 59.3548 147.335 62.1042 145.395 62.1042C142.969 62.1042 141.675 59.5165 141.352 56.7671C140.543 49.9745 144.748 41.7262 151.055 41.7262C152.834 41.7262 154.937 42.3732 155.099 44.3139C155.297 46.1027 154.214 46.5481 153.386 46.8883C152.867 47.1017 152.449 47.2738 152.511 47.7103C152.673 49.0041 154.775 49.3276 156.231 49.3276C157.524 49.3276 161.729 48.3572 161.083 43.667C160.597 39.9472 156.554 38.1682 152.026 38.1682C146.62 38.1682 142.019 40.9054 138.886 44.6929C138.453 44.9486 137.995 45.4058 137.47 45.9313C136.5 47.0634 134.559 48.1955 132.133 48.1955C131.809 48.1955 131.162 48.0338 131.162 48.0338C132.78 44.9609 133.912 41.7263 133.912 38.9769C133.912 34.4485 131.162 32.1843 128.09 32.1843C124.208 32.1843 120.165 35.5806 120.165 42.3733C120.165 46.4165 121.782 49.6511 124.532 51.4301C121.297 56.6055 116.93 60.9722 116.283 60.9722C116.06 60.9722 115.991 60.7409 115.916 60.4912C115.883 60.3793 115.848 60.2637 115.798 60.1635C115.313 58.3845 114.828 54.8265 114.828 52.724C114.828 48.8424 115.475 44.9609 116.93 40.9177C117.092 40.4325 117.254 39.9473 117.254 39.6238C117.254 38.4917 116.445 38.0065 115.475 38.0065C113.534 38.0065 110.461 40.2708 109.652 42.6967C109.005 44.9609 108.682 48.1955 108.682 52.077C108.682 52.7889 108.694 53.4949 108.717 54.1903C104.857 59.3932 100.094 61.1338 98.6547 61.1338C96.8756 61.1338 96.5522 59.5165 96.8756 58.8696C98.0077 54.1795 99.4633 48.8424 100.757 45.1226C101.404 43.3435 101.728 41.7263 101.566 40.7559C101.242 38.9768 100.11 38.1682 98.4929 38.1682C94.6114 38.1682 88.4657 42.0497 84.4224 47.3868L85.7163 41.5645C85.878 40.9176 85.878 40.4324 85.878 40.109C85.7163 38.9768 85.0694 38.4917 84.099 38.4917C79.5705 38.4917 78.7619 40.7559 78.2767 43.0201C78.183 43.5821 76.8959 50.2198 75.8292 55.7072C72.378 58.8745 68.511 60.9722 67.441 60.9722C66.1471 60.9722 65.6619 60.0018 65.6619 59.1931C65.6619 58.6346 65.9834 57.1118 66.2871 55.673C66.5111 54.612 66.7254 53.5965 66.7941 53.0474C66.9558 52.4005 66.9558 51.9153 66.9558 51.5919C66.7941 50.6215 65.9854 50.1363 65.015 50.1363C63.0743 50.1363 60.3249 52.077 59.6779 54.8265C58.7076 59.0314 55.7964 61.7808 53.8557 61.7808C51.4297 61.7808 50.1359 59.1932 49.8124 56.6055C49.0038 50.7832 52.7236 41.4029 59.5162 41.4029C61.457 41.4029 63.3977 42.0498 63.5595 43.9906C63.7553 45.8511 62.7653 46.2887 61.9896 46.6316C61.4842 46.855 61.0697 47.0382 61.1335 47.5486C61.2952 48.8424 63.3977 49.1659 64.6916 49.1659C66.1471 49.1659 70.1904 48.1955 69.5435 43.5054C69.0583 39.7856 65.1768 37.8448 60.4866 37.8448C49.6089 37.8448 42.3703 48.6039 43.1527 57.1328C40.3903 60.3654 37.6304 62.3093 32.669 64.8536C29.9196 66.3092 26.685 67.1178 23.7738 67.1178C14.717 67.1178 10.3503 58.8696 9.54161 51.7535C7.27739 33.6398 23.4504 8.57164 34.6097 8.57164C37.1974 8.57164 39.4616 10.8359 39.9468 14.3939C40.5937 19.8927 40.432 23.7742 34.7715 28.4644C34.1245 28.9496 33.9628 29.7582 34.2863 30.2434C34.7715 30.8904 36.3888 31.0521 39.4616 29.4348C45.6074 26.3619 47.7098 21.6718 47.0629 16.1729C46.416 10.0272 41.0789 5.01358 33.9628 5.01358C30.4048 5.01358 26.685 5.98396 23.2886 8.08645C8.57123 17.1433 -0.970833 37.5213 0.808196 53.0473C1.45512 58.061 3.5576 63.3981 7.43912 67.1178C10.0268 69.5438 14.717 72.4549 20.3775 72.4549C26.5232 72.4549 31.6986 70.1907 36.227 67.2796ZM127.119 45.9313C125.502 44.1523 124.208 41.4029 124.208 38.8152C124.208 37.3596 124.693 35.7423 125.825 35.7423C126.796 35.7423 128.09 37.1979 128.09 40.5942C128.09 42.3733 127.766 44.1523 127.119 45.9313Z" fill="#868686"/>
</g>
<defs>
<clipPath id="clip0_3_743">
<rect width="161.73" height="77.6303" fill="white"/>
</clipPath>
</defs>
</svg>
