<svg width="240" height="78" viewBox="0 0 240 78" fill="none" xmlns="http://www.w3.org/2000/svg">
<path d="M0.387002 42.3825L25.5441 67.5396C12.6972 65.368 2.55856 55.2294 0.387002 42.3825Z" fill="#868686"/>
<path d="M0 35.5528L32.3738 67.9266C34.2991 67.8237 36.1774 67.5437 37.9926 67.1027L0.823903 29.9339C0.38284 31.7492 0.102874 33.6274 0 35.5528Z" fill="#868686"/>
<path d="M2.43542 25.1024L42.8243 65.4913C44.2953 64.86 45.7072 64.1172 47.0493 63.2736L4.65317 20.8774C3.80955 22.2195 3.06676 23.6314 2.43542 25.1024Z" fill="#868686"/>
<path d="M7.38929 17.1712C13.0287 10.6185 21.383 6.46924 30.7065 6.46924C47.6897 6.46924 61.4573 20.2368 61.4573 37.2201C61.4573 46.5435 57.3081 54.8979 50.7554 60.5373L7.38929 17.1712Z" fill="#868686"/>
<path d="M93.4961 55.6346H116.028V49.4989H100.938V20.4363H93.4961V55.6346ZM120.818 55.6346H128.14V29.2359H120.818V55.6346ZM124.496 26.1079C126.628 26.1079 128.467 24.4924 128.467 22.3956C128.467 20.316 126.628 18.7005 124.496 18.7005C122.383 18.7005 120.544 20.316 120.544 22.3956C120.544 24.4924 122.383 26.1079 124.496 26.1079ZM141.327 40.3729C141.344 36.9699 143.372 34.9762 146.328 34.9762C149.267 34.9762 151.037 36.9012 151.02 40.1323V55.6346H158.341V38.8261C158.341 32.6732 154.732 28.8922 149.232 28.8922C145.314 28.8922 142.478 30.8171 141.292 33.8935H140.983V29.2359H134.005V55.6346H141.327V40.3729ZM176.211 56.1503C182.759 56.1503 187.142 52.9706 188.173 48.0725L181.419 47.6256C180.68 49.6365 178.772 50.6849 176.349 50.6849C172.688 50.6849 170.368 48.2615 170.368 44.3258V44.3086H188.345V42.2978C188.345 33.3263 182.914 28.8922 175.936 28.8922C168.168 28.8922 163.132 34.4091 163.132 42.5556C163.132 50.9255 168.099 56.1503 176.211 56.1503ZM170.368 39.7713C170.505 36.7636 172.808 34.3575 176.057 34.3575C179.219 34.3575 181.419 36.6262 181.453 39.7713H170.368ZM200.754 56.1331C204.655 56.1331 207.182 54.4317 208.471 51.9739H208.677V55.6346H215.62V37.8292C215.62 31.5389 210.241 28.8922 204.535 28.8922C198.038 28.8922 193.931 31.917 192.917 36.7293L199.688 37.2793C200.187 35.5262 201.751 34.2372 204.38 34.2372C206.907 34.2372 208.282 35.4747 208.299 37.6917C208.316 39.4276 206.494 39.6854 201.905 40.1323C196.68 40.6135 191.989 42.3665 191.989 48.2615C191.989 53.4863 195.718 56.1331 200.754 56.1331ZM202.851 51.0801C200.599 51.0801 198.984 50.0318 198.984 48.0209C198.984 45.9586 200.685 44.9444 203.263 44.5836C204.861 44.3602 207.474 43.9821 208.35 43.3977V46.1992C208.35 48.9662 206.065 51.0801 202.851 51.0801ZM221.3 55.6346H228.622V40.6994C228.639 37.4683 230.977 35.2512 233.933 35.2512C234.929 35.2512 235.737 35.5262 236.425 35.87L238.625 29.8203C237.662 29.2359 236.425 28.8578 235.015 28.8578C232.042 28.8578 229.636 30.5765 228.673 33.8419H228.399V29.2359H221.3V55.6346Z" fill="#868686"/>
</svg>
