<svg width="196" height="78" viewBox="0 0 196 78" fill="none" xmlns="http://www.w3.org/2000/svg">
<g clip-path="url(#clip0_3_555)">
<path d="M61.336 52.443L63.7103 46.8934C66.3101 48.8186 69.701 49.8376 73.0928 49.8376C75.5798 49.8376 77.1622 48.8754 77.1622 47.4033C77.1055 43.3257 62.1839 46.497 62.0704 36.2455C62.0137 31.0355 66.6489 27.0147 73.2062 27.0147C77.1055 27.0147 81.0063 27.9777 83.7755 30.1867L81.5567 35.8548C79.0089 34.2165 75.8619 33.0743 72.8666 33.0743C70.8319 33.0743 69.4748 34.0365 69.4748 35.2833C69.5316 39.3041 84.5675 37.0951 84.7369 46.8934C84.7369 52.2169 80.2143 55.9548 73.7705 55.9548C69.0233 55.9548 64.671 54.8223 61.3351 52.443H61.336ZM155.88 44.8838C155.281 45.9487 154.409 46.835 153.354 47.4518C152.299 48.0686 151.099 48.3938 149.877 48.3939C146.069 48.3939 142.982 45.3004 142.982 41.4847C142.982 37.669 146.069 34.5756 149.877 34.5756C151.099 34.5757 152.299 34.9008 153.354 35.5176C154.409 36.1345 155.281 37.0208 155.88 38.0857L162.481 34.4216C160.009 30.0027 155.292 27.0147 149.877 27.0147C141.901 27.0147 135.436 33.4926 135.436 41.4847C135.436 49.4761 141.901 55.9548 149.877 55.9548C155.292 55.9548 160.009 52.9667 162.481 48.5479L155.88 44.8838ZM89.0203 55.3881H97.2727V14.9693H89.0212L89.0203 55.3881ZM166.649 14.9693V55.3881H174.901V43.2787L184.68 55.3881H195.228L182.793 41.0024L194.323 27.5789H184.228L174.901 38.7391V14.9693H166.649ZM122.697 27.5805V30.8661C121.341 28.6003 118.006 27.0147 114.501 27.0147C107.266 27.0147 101.558 33.4147 101.558 41.4563C101.558 49.498 107.266 55.9548 114.501 55.9548C118.006 55.9548 121.341 54.3691 122.697 52.1034V55.3881H130.949V27.5805H122.697ZM122.697 44.9397C121.51 46.9217 119.023 48.3931 116.254 48.3931C112.445 48.3931 109.358 45.3004 109.358 41.4847C109.358 37.669 112.445 34.5756 116.254 34.5756C119.023 34.5756 121.51 36.1045 122.697 38.1424V44.9397Z" fill="#868686"/>
<path d="M17.7551 14.0758C15.0808 14.0758 12.9132 16.2483 12.9132 18.9275C12.9125 19.564 13.0373 20.1944 13.2802 20.7827C13.5232 21.371 13.8797 21.9056 14.3293 22.3561C14.7789 22.8067 15.3129 23.1642 15.9007 23.4084C16.4885 23.6526 17.1187 23.7786 17.7551 23.7792H22.5979V18.9275C22.599 17.6419 22.0894 16.4086 21.1813 15.4988C20.2731 14.5889 19.0407 14.077 17.7551 14.0758ZM17.7551 27.0137H4.84236C2.16804 27.0137 0.000366211 29.1862 0.000366211 31.8662C0.000366211 34.5454 2.16804 36.7179 4.84236 36.7179H17.756C20.4295 36.7179 22.5979 34.5454 22.5979 31.8662C22.5979 29.1862 20.4295 27.0137 17.7551 27.0137Z" fill="#868686"/>
<path d="M48.4237 31.8662C48.4237 29.1862 46.2552 27.0137 43.5809 27.0137C40.9066 27.0137 38.7389 29.1862 38.7389 31.8662V36.7179H43.5809C44.8664 36.7166 46.0988 36.2048 47.007 35.2949C47.9152 34.3851 48.4248 33.1518 48.4237 31.8662ZM35.5109 31.8662V18.9275C35.512 17.6419 35.0024 16.4086 34.0942 15.4988C33.186 14.5889 31.9536 14.077 30.6681 14.0758C27.9938 14.0758 25.8261 16.2483 25.8261 18.9275V31.8654C25.8261 34.5462 27.9938 36.7187 30.6681 36.7187C31.9536 36.7175 33.186 36.2056 34.0942 35.2957C35.0024 34.3859 35.512 33.1526 35.5109 31.867" fill="#868686"/>
<path d="M30.6681 62.5948C31.9536 62.5935 33.186 62.0816 34.0942 61.1718C35.0024 60.2619 35.512 59.0286 35.5109 57.7431C35.512 56.4575 35.0024 55.2242 34.0942 54.3143C33.186 53.4045 31.9536 52.8926 30.6681 52.8913H25.8261V57.7431C25.8261 60.4222 27.9938 62.5948 30.6681 62.5948ZM30.6681 49.6569H43.5817C46.2552 49.6569 48.4237 47.4843 48.4237 44.8043C48.4248 43.5188 47.9152 42.2855 47.007 41.3756C46.0988 40.4658 44.8664 39.9539 43.5809 39.9526H30.6681C27.9938 39.9526 25.8261 42.1251 25.8261 44.8043C25.8255 45.4408 25.9502 46.0712 26.1932 46.6595C26.4362 47.2478 26.7927 47.7825 27.2423 48.233C27.6919 48.6835 28.2259 49.0411 28.8137 49.2852C29.4015 49.5294 30.0316 49.6554 30.6681 49.656" fill="#868686"/>
<path d="M-0.000180662 44.8043C-0.000819717 45.4408 0.123915 46.0712 0.366902 46.6595C0.609889 47.2478 0.96637 47.7825 1.41599 48.233C1.86561 48.6835 2.39957 49.0411 2.98737 49.2852C3.57517 49.5294 4.20531 49.6554 4.84181 49.656C6.12735 49.6548 7.35974 49.1429 8.26792 48.233C9.1761 47.3232 9.68569 46.0899 9.68461 44.8043V39.9526H4.84181C2.16749 39.9526 -0.000180662 42.1251 -0.000180662 44.8043ZM12.9126 44.8043V57.7422C12.9126 60.4222 15.0803 62.5948 17.7546 62.5948C19.0401 62.5935 20.2725 62.0816 21.1807 61.1718C22.0889 60.2619 22.5985 59.0286 22.5974 57.7431V44.8043C22.598 44.1678 22.4733 43.5373 22.2302 42.949C21.9872 42.3606 21.6307 41.8259 21.1809 41.3754C20.7312 40.9248 20.1972 40.5673 19.6093 40.3232C19.0214 40.0791 18.3912 39.9531 17.7546 39.9526C15.0803 39.9526 12.9126 42.1251 12.9126 44.8043Z" fill="#868686"/>
</g>
<defs>
<clipPath id="clip0_3_555">
<rect width="195.693" height="77.6303" fill="white"/>
</clipPath>
</defs>
</svg>
