<svg width="130" height="78" viewBox="0 0 130 78" fill="none" xmlns="http://www.w3.org/2000/svg">
<g clip-path="url(#clip0_3_895)">
<path fill-rule="evenodd" clip-rule="evenodd" d="M128.261 41.7538C128.261 32.633 123.843 25.4361 115.399 25.4361C106.92 25.4361 101.789 32.633 101.789 41.6825C101.789 52.4065 107.846 57.822 116.539 57.822C120.779 57.822 123.986 56.86 126.408 55.5062V48.3806C123.986 49.5919 121.207 50.3401 117.68 50.3401C114.224 50.3401 111.16 49.1288 110.768 44.9246H128.19C128.19 44.4615 128.261 42.6088 128.261 41.7538ZM110.661 38.3691C110.661 34.3431 113.119 32.6686 115.364 32.6686C117.537 32.6686 119.853 34.3431 119.853 38.3691H110.661Z" fill="#868686"/>
<path fill-rule="evenodd" clip-rule="evenodd" d="M88.0367 25.4361C84.5452 25.4361 82.3006 27.075 81.0536 28.2151L80.5905 26.0061H72.7523V67.5484L81.6593 65.6601L81.6949 55.5774C82.9775 56.5037 84.8658 57.822 88.0011 57.822C94.3785 57.822 100.186 52.6915 100.186 41.3974C100.15 31.0653 94.2716 25.4361 88.0367 25.4361ZM85.8991 49.9838C83.797 49.9838 82.55 49.2356 81.6949 48.3093L81.6593 35.0913C82.5857 34.0581 83.8683 33.3455 85.8991 33.3455C89.1412 33.3455 91.3858 36.9796 91.3858 41.6468C91.3858 46.421 89.1768 49.9838 85.8991 49.9838Z" fill="#868686"/>
<path fill-rule="evenodd" clip-rule="evenodd" d="M60.4961 23.334L69.4387 21.4101V14.1776L60.4961 16.0659V23.334Z" fill="#868686"/>
<path d="M69.4387 26.0417H60.4961V57.2162H69.4387V26.0417Z" fill="#868686"/>
<path fill-rule="evenodd" clip-rule="evenodd" d="M50.9118 28.6782L50.3417 26.0417H42.6461V57.2162H51.5531V36.0888C53.6551 33.3455 57.2179 33.8442 58.3224 34.2362V26.0417C57.1823 25.6142 53.0138 24.8304 50.9118 28.6782Z" fill="#868686"/>
<path fill-rule="evenodd" clip-rule="evenodd" d="M33.098 18.3104L24.4048 20.163L24.3692 48.7011C24.3692 53.974 28.3239 57.8575 33.5968 57.8575C36.5183 57.8575 38.656 57.3231 39.8317 56.6818V49.4493C38.6917 49.9124 33.0624 51.5513 33.0624 46.2784V33.6304H39.8317V26.0417H33.0624L33.098 18.3104Z" fill="#868686"/>
<path fill-rule="evenodd" clip-rule="evenodd" d="M9.01386 35.0913C9.01386 33.7018 10.154 33.1674 12.0422 33.1674C14.75 33.1674 18.1703 33.9868 20.878 35.4476V27.075C17.9209 25.8993 14.9994 25.4361 12.0422 25.4361C4.80975 25.4361 -3.05176e-05 29.2127 -3.05176e-05 35.5188C-3.05176e-05 45.3522 13.5386 43.7845 13.5386 48.0243C13.5386 49.6632 12.1135 50.1976 10.1183 50.1976C7.1612 50.1976 3.38463 48.9862 0.391877 47.3474V55.8268C3.70528 57.2519 7.05432 57.8576 10.1183 57.8576C17.529 57.8576 22.6238 54.1879 22.6238 47.8105C22.5881 37.1934 9.01386 39.0816 9.01386 35.0913Z" fill="#868686"/>
</g>
<defs>
<clipPath id="clip0_3_895">
<rect width="129.384" height="77.6303" fill="white"/>
</clipPath>
</defs>
</svg>
