<svg width="188" height="78" viewBox="0 0 188 78" fill="none" xmlns="http://www.w3.org/2000/svg">
<g clip-path="url(#clip0_3_687)">
<path d="M60.2385 34.6226C60.2385 31.2884 56.9043 27.7318 51.3472 27.7318C45.1233 27.7318 38.0103 32.3998 36.8989 41.7356C35.7874 51.0715 41.5668 55.2949 47.5684 55.2949C53.5701 55.2949 56.4597 53.0721 59.5717 49.9601C56.9043 46.6259 53.3478 48.1818 52.6809 48.4041C52.0141 48.8487 50.9027 49.2933 49.1244 49.2933C46.9016 49.2933 44.4565 48.1818 44.4565 43.9585C59.1271 42.4025 60.2385 37.9568 60.2385 34.6226ZM53.1255 35.0672C53.1255 36.1786 52.6809 37.9568 45.3456 38.846C46.9016 33.2889 49.7913 32.8443 51.1249 32.8443C52.4586 33.0666 53.1255 33.9557 53.1255 35.0672ZM28.4521 35.9563C28.4521 35.9563 25.3402 45.7367 25.1179 46.6259C25.1179 45.7367 22.6728 28.1764 22.6728 28.1764C17.338 28.1764 14.4483 31.9552 13.1146 35.9563C13.1146 35.9563 9.3358 45.7367 9.11351 46.6259C8.89123 45.959 8.44667 36.1786 8.44667 36.1786C8.0021 31.2884 3.55645 28.1764 -7.62939e-05 28.1764L4.44558 54.8503C10.0026 54.8503 13.1146 51.0715 14.6706 47.0704C14.6706 47.0704 18.0048 38.4014 18.2271 37.9568C18.2271 38.4014 20.6722 54.8503 20.6722 54.8503C26.2293 54.8503 29.3412 51.2938 30.8972 47.515L38.6771 28.1764C32.8978 28.1764 30.0081 31.9552 28.4521 35.9563ZM80.9108 27.5095C77.5766 27.5095 74.9092 29.2878 72.6864 32.1775L74.4646 16.1731C69.7967 16.1731 66.2402 20.1742 65.351 25.9536L61.7945 54.628C64.4619 54.628 67.1293 53.9612 68.6853 51.9606C70.019 53.7389 72.0195 55.0726 74.9092 55.0726C82.6891 55.0726 88.0239 46.1813 88.0239 37.7346C88.2462 29.9547 84.4674 27.5095 80.9108 27.5095ZM80.0217 41.2911C79.1326 45.959 76.6875 49.071 74.0201 49.071C71.575 49.071 70.4635 47.9596 70.4635 47.9596C70.9081 43.9585 71.3527 41.2911 72.2418 39.0682C73.1309 36.8454 75.3538 33.5112 77.5766 33.5112C79.7994 33.7335 80.9108 36.6231 80.0217 41.2911ZM107.585 28.1764H102.25V27.9541C102.695 24.3976 103.361 22.6193 106.251 22.397C108.029 22.1748 108.918 21.2856 109.141 20.1742C109.363 19.2851 109.808 16.3954 109.808 16.3954C98.9157 16.3954 95.5815 21.0633 94.6924 28.1764V28.3987H94.4701C92.6918 28.3987 90.6913 30.3992 90.469 32.8443L90.2467 33.7335H93.8032L90.6913 58.6291L89.8021 63.0748C90.0244 63.0748 90.0244 63.0748 90.2467 63.0748C95.3592 62.8525 98.4712 58.8514 99.3603 53.0721L101.805 33.5112H103.584C105.14 33.5112 107.14 31.9552 107.585 29.0655V28.1764ZM135.592 27.7318C129.368 27.7318 123.589 32.3998 121.811 39.5128C120.033 46.6259 122.7 55.2949 131.814 55.2949C140.927 55.2949 146.262 46.4036 146.262 39.0682C146.04 31.7329 141.149 27.7318 135.592 27.7318ZM138.037 41.0688C137.815 44.403 136.259 49.2933 132.258 49.2933C128.257 49.2933 128.924 43.5139 129.146 40.8465C129.591 37.9568 131.147 33.7335 134.703 33.7335C138.037 33.7335 138.482 37.5123 138.037 41.0688ZM176.937 35.9563C176.937 35.9563 173.825 45.7367 173.603 46.6259C173.603 45.7367 171.158 28.1764 171.158 28.1764C165.823 28.1764 162.933 31.9552 161.599 35.9563C161.599 35.9563 157.821 45.7367 157.598 46.6259C157.598 45.959 156.932 36.1786 156.932 36.1786C156.709 31.2884 152.041 28.3987 148.485 28.3987L152.93 55.0726C158.488 55.0726 161.599 51.2938 163.155 47.2927C163.155 47.2927 166.49 38.6237 166.712 38.1791C166.712 38.6237 169.157 55.0726 169.157 55.0726C174.714 55.0726 177.826 51.5161 179.382 47.7373L186.717 28.1764C181.16 28.1764 178.271 31.9552 176.937 35.9563ZM112.697 16.3954L108.252 52.8498L107.362 57.2954C107.585 57.2954 107.585 57.2954 107.807 57.2954C112.697 57.2954 116.254 52.8498 116.698 47.515L119.366 26.6204C120.033 20.3965 116.032 16.3954 112.697 16.3954Z" fill="#868686"/>
</g>
<defs>
<clipPath id="clip0_3_687">
<rect width="187.607" height="77.6303" fill="white"/>
</clipPath>
</defs>
</svg>
