<svg width="159" height="78" viewBox="0 0 159 78" fill="none" xmlns="http://www.w3.org/2000/svg">
<g clip-path="url(#clip0_3_575)">
<path fill-rule="evenodd" clip-rule="evenodd" d="M128.91 33.3116C129.516 34.3557 129.714 35.5438 129.779 36.8793L129.865 38.6595V51.1075L129.953 52.8895C130.128 55.7997 132.275 57.9516 135.207 58.1347L136.98 58.2224V38.6595L137.068 36.8793C137.141 35.5587 137.337 34.3483 137.951 33.2966C138.577 32.2179 139.476 31.323 140.558 30.7016C141.639 30.0803 142.865 29.7544 144.113 29.7567C145.36 29.7589 146.585 30.0893 147.664 30.7146C148.743 31.3399 149.639 32.2381 150.261 33.319C150.866 34.3632 151.055 35.5736 151.128 36.8793L151.215 38.6539V51.1075L151.303 52.8895C151.486 55.8147 153.616 57.9665 156.558 58.1347L158.33 58.2224V36.8793C158.33 33.1053 156.832 29.4857 154.163 26.8166C151.495 24.1474 147.876 22.6471 144.102 22.6456C142.082 22.6435 140.085 23.0725 138.244 23.9039C136.403 24.7353 134.761 25.9499 133.427 27.4668C132.092 25.9505 130.45 24.7361 128.609 23.9045C126.769 23.0728 124.772 22.6431 122.752 22.6437C119.797 22.6437 117.055 23.5404 114.783 25.0889C113.397 23.5422 110.296 22.6437 108.516 22.6437V58.2224L110.296 58.1347C113.274 57.9385 115.426 55.8446 115.542 52.8895L115.637 51.1075V38.6595L115.725 36.8793C115.799 35.5363 115.986 34.3557 116.593 33.3041C117.22 32.2261 118.118 31.3314 119.199 30.7092C120.28 30.0871 121.505 29.7594 122.752 29.7587C124 29.759 125.226 30.0874 126.307 30.711C127.387 31.3346 128.285 32.2314 128.91 33.3116ZM7.11496 58.1365L8.89511 58.2224H35.5787L35.4909 56.4479C35.2499 53.5227 33.1784 51.3858 30.2438 51.1952L28.4637 51.1075H12.4554L33.7985 29.7569L33.7107 27.9842C33.5725 25.0291 31.4131 22.8941 28.4637 22.7315L26.6835 22.6512L-3.05176e-05 22.6437L0.0877628 24.4239C0.321255 27.3211 2.42269 29.5028 5.33294 29.6709L7.11496 29.7587H23.1232L1.78012 51.1093L1.86791 52.8895C2.0435 55.8221 4.15988 57.946 7.11496 58.1347V58.1365ZM101.532 27.8516C103.184 29.5034 104.495 31.4646 105.389 33.623C106.283 35.7815 106.743 38.0949 106.743 40.4312C106.743 42.7676 106.283 45.081 105.389 47.2394C104.495 49.3979 103.184 51.359 101.532 53.0109C98.1939 56.3462 93.6682 58.2197 88.9495 58.2197C84.2307 58.2197 79.705 56.3462 76.367 53.0109C69.4202 46.064 69.4202 34.7984 76.367 27.8516C78.0177 26.2003 79.9775 24.8903 82.1345 23.9964C84.2915 23.1025 86.6034 22.6422 88.9383 22.6419C91.2769 22.6403 93.593 23.0997 95.7539 23.994C97.9149 24.8882 99.8783 26.1997 101.532 27.8534V27.8516ZM96.4978 32.8894C98.4988 34.8919 99.6228 37.6069 99.6228 40.4378C99.6228 43.2686 98.4988 45.9836 96.4978 47.9861C94.4954 49.9871 91.7803 51.1111 88.9495 51.1111C86.1186 51.1111 83.4036 49.9871 81.4011 47.9861C79.4002 45.9836 78.2762 43.2686 78.2762 40.4378C78.2762 37.6069 79.4002 34.8919 81.4011 32.8894C83.4036 30.8885 86.1186 29.7645 88.9495 29.7645C91.7803 29.7645 94.4954 30.8885 96.4978 32.8894ZM51.6019 22.6419C53.9369 22.6425 56.2489 23.103 58.4059 23.9973C60.5628 24.8915 62.5226 26.2018 64.1731 27.8534C71.1219 34.7984 71.1219 46.0659 64.1731 53.0109C60.8351 56.3462 56.3094 58.2197 51.5907 58.2197C46.8719 58.2197 42.3462 56.3462 39.0082 53.0109C32.0613 46.064 32.0613 34.7984 39.0082 27.8516C40.6589 26.2003 42.6187 24.8903 44.7757 23.9964C46.9327 23.1025 49.2446 22.6422 51.5794 22.6419H51.6019ZM59.139 32.8857C61.1405 34.8882 62.2649 37.6037 62.2649 40.435C62.2649 43.2663 61.1405 45.9817 59.139 47.9843C57.1365 49.9852 54.4215 51.1092 51.5907 51.1092C48.7598 51.1092 46.0448 49.9852 44.0423 47.9843C42.0413 45.9818 40.9173 43.2668 40.9173 40.4359C40.9173 37.605 42.0413 34.89 44.0423 32.8875C46.0448 30.8866 48.7598 29.7626 51.5907 29.7626C54.4215 29.7626 57.1365 30.8866 59.139 32.8875V32.8857Z" fill="#868686"/>
</g>
<defs>
<clipPath id="clip0_3_575">
<rect width="158.495" height="77.6303" fill="white"/>
</clipPath>
</defs>
</svg>
