<svg xmlns="http://www.w3.org/2000/svg" width="123" height="34" viewBox="0 0 497.05 90.3" 
    >
    <path
        d="M432.59 43.28c.53-.35.42-.6-.86.44.02 0 .04-.02.06-.03.23-.15.54-.29.81-.41ZM75.59 44.53c-.97.41-1.99.87 0 0h0ZM93.99 38.86c-.13.03-.26.06-.38.09 1.43-.29 1.99-.41 2.08-.44-.32.07-.64.12-.96.19-.25.05-.49.11-.74.16ZM376 57.03c-.11 0-.22.01-.32.02.03 0 .06 0 .09 0 .08 0 .16-.01.23-.02Z" />
    <path
        d="m495.76,3.61c-.83-1.09-1.87-1.87-3.12-2.32-3.64-1.75-7.29-1.43-11.16-.67-9.26,1.82-18.52,3.64-27.78,5.46-14.66,2.88-29.31,5.76-43.97,8.64-3.37.66-6.74,1.32-10.11,1.99-2.95.58-6.57,2.72-8.54,5.01-1.51,1.76-3,4.73-2.18,7.16.86,2.52,2.91,4.33,5.46,5.11,3.32,1.02,6.53.73,9.9.07,9.26-1.82,18.52-3.64,27.78-5.46,9.4-1.85,18.8-3.69,28.2-5.54-4.63,4.56-9.61,8.68-14.86,12.54-.08.06-.22.15-.34.24-.2.14-.4.27-.6.41-.75.5-1.5,1-2.26,1.48-1.61,1.03-3.25,2.03-4.91,2.99-1.46.85-2.94,1.67-4.44,2.46-.07.04-.16.08-.25.12-.08.05-.17.1-.27.16-.18.09-.35.17-.53.26-.05.03-.1.06-.14.09.03-.03.05-.04.09-.07-.82.4-1.64.8-2.46,1.19-1.64.77-3.3,1.5-4.97,2.21-.53.22-1.05.44-1.58.65-.37.14-.73.28-1.1.42-1.71.64-3.43,1.25-5.16,1.83-.48.16-.96.32-1.45.47-.45.11-.91.3-1.35.42-1.76.52-3.54,1-5.32,1.46-.89.23-1.79.45-2.68.67-.12.03-.23.05-.35.08-3.7.79-7.41,1.5-11.15,2.09-.18.03-.37.06-.55.09-.82.11-1.64.23-2.47.33-1.97.25-3.95.47-5.93.67-1.87.18-3.74.35-5.61.48-.94.07-1.87.13-2.81.19-.27.02-.54.03-.81.04.58-.03,1.11-.04.08,0-.1,0-.21,0-.31.01-.12,0-.25.01-.37.03.08,0,.17-.02.28-.02-7.62.32-15.24.33-22.86,0-1.87-.08-3.74-.19-5.61-.31-.93-.06-1.87-.13-2.8-.2-.28-.02-.57-.04-.85-.07-.16-.01-.43-.04-.75-.06-3.87-.34-7.74-.77-11.59-1.26-9.52-1.22-19-2.81-28.43-4.62-37.45-7.17-74.23-17.79-112.07-22.89-34.02-4.58-68.24-3.79-101.61,4.74-30.99,7.92-61.2,22.54-82.29,47.17-2.29,2.67-4.43,5.46-6.46,8.33-2.55,3.61,9.46,2.16,10.3,1.99,3.38-.67,6.83-1.57,9.95-3.06,1.97-.94,4.12-1.92,5.42-3.76,4.36-6.2,8.16-10.6,13.45-15.6,2.51-2.37,5.13-4.63,7.84-6.77,1.36-1.07,2.73-2.11,4.14-3.12.35-.25.7-.5,1.05-.75,1.42-1.01-.21.07-.25.17.17-.45,2.04-1.36,2.43-1.62,3-1.95,6.09-3.77,9.24-5.47.56-.3,1.13-.6,1.7-.89.35-.17.7-.35,1.05-.52,1.67-.81,3.36-1.59,5.06-2.34,1.51-.66,3.05-1.26,4.56-1.92-.27.12-.49.22-.7.3.28-.12.56-.23.76-.31,1.03-.39,2.07-.77,3.11-1.14,1.57-.56,3.14-1.09,4.72-1.6.05-.02.09-.03.14-.04.83-.24,1.66-.49,2.5-.73,1.72-.48,3.45-.94,5.18-1.38.53-.13,1.06-.26,1.6-.39-.17.03-.33.07-.52.1.3-.06.6-.13.91-.2.21-.05.42-.1.63-.15.49-.12,1.19-.24,1.07-.2,3.32-.69,6.65-1.31,9.99-1.83.04,0,.08-.01.11-.02,0,0,.01,0,.02,0,.78-.1,1.57-.21,2.35-.31,1.9-.24,3.81-.46,5.72-.65,1.8-.18,3.6-.34,5.4-.48.9-.07,1.8-.13,2.7-.19.37-.02.74-.05,1.11-.07,7.24-.29,14.47-.33,21.7.01,1.78.08,3.55.19,5.33.31.2.01,1.76.13,2.04.15,1.19.1,2.38.21,3.58.32,4.77.46,9.53,1.02,14.28,1.67,37.83,5.19,74.6,15.82,112.06,22.94,33.18,6.31,67.08,9.36,100.69,4.61,27.66-3.91,55.81-12.07,79.54-27.26-3.31,10.91-6.62,21.81-9.92,32.72-.85,2.8-1.7,5.59-2.54,8.39-.71,2.33,1.38,5.14,3.11,6.33,2.37,1.63,6.07,2.2,8.86,1.9,3.43-.37,7.07-1.38,9.81-3.57.76-.69,1.52-1.38,2.28-2.06,1.25-1.35,2.02-2.92,2.33-4.73,2.34-7.73,4.69-15.46,7.03-23.19,3.73-12.3,7.46-24.6,11.19-36.9.85-2.8,1.7-5.59,2.54-8.39.21-1.7-.2-3.24-1.24-4.61ZM106.28,36.57c.12-.02.24-.03.37-.05-.11.02-.23.03-.37.05Z" />
</svg>