<svg xmlns="http://www.w3.org/2000/svg" width="123" height="34" fill="none"
    xmlns:v="https://vecta.io/nano">
    <path
        d="M1.43 1.878a1 1 0 1 0 .311 1.976L1.43 1.878zm56.451 13.581l-.571.821.571-.821zm-1.809 10.338l-.175-.985.175.985zM44.839 15.756l-.81-.586.81.586zm76.406 17.002a1 1 0 0 0 .887-1.101l-.964-8.948a1 1 0 0 0-1.101-.887 1 1 0 0 0-.887 1.101l.857 7.954-7.954.857a1 1 0 0 0 .214 1.988l8.948-.964zM1.741 3.854c11.497-1.811 19.86-2.501 28.09-.868C38.052 4.617 46.237 8.587 57.31 16.28l1.141-1.642C47.275 6.873 38.827 2.732 30.221 1.024 21.623-.682 12.963.062 1.43 1.878l.311 1.976zM57.31 16.28c1.614 1.121 2.454 2.18 2.827 3.083.363.878.314 1.676.013 2.39-.635 1.507-2.459 2.739-4.254 3.059l.35 1.969c2.273-.404 4.781-1.96 5.746-4.251.5-1.185.568-2.538-.007-3.931-.566-1.369-1.721-2.702-3.534-3.962L57.31 16.28zm-1.414 8.532c-3.777.672-6.52.717-8.447.371-1.921-.345-2.931-1.058-3.429-1.826s-.616-1.802-.32-3.054.988-2.632 1.949-3.961l-1.621-1.172c-1.064 1.472-1.9 3.09-2.274 4.672s-.307 3.225.588 4.603 2.496 2.3 4.753 2.706c2.251.405 5.254.323 9.151-.37l-.35-1.969zm-10.246-8.47c2.64-3.653 7.112-5.697 12.879-6.345s12.694.115 20.034 1.952c14.68 3.674 30.756 11.579 41.949 20.594l1.254-1.558c-11.429-9.206-27.77-17.236-42.717-20.976-7.474-1.87-14.66-2.684-20.743-1.999s-11.184 2.883-14.276 7.161l1.621 1.172z"
        fill="#000" />
</svg>