
<svg width="115" height="115" viewBox="0 0 115 115" fill="none" xmlns="http://www.w3.org/2000/svg">
<path d="M113.303 65.0012C113.303 65.0012 108.972 66.8549 98.3027 78.0012C87.6333 89.1475 84.5615 95.1228 78.3027 101.566C72.044 108.009 64.3027 113.001 64.3027 113.001" stroke="white" stroke-opacity="0.2" stroke-width="3" stroke-linecap="round" stroke-linejoin="round"/>
<path d="M113.303 43.0012C113.303 43.0012 104.688 48.8589 96.0459 57.5012C87.4036 66.1436 87.244 68.3814 78.3027 78.0012C69.3615 87.621 62.0609 91.2372 55.2969 98.0012C48.5329 104.765 43.3027 113.001 43.3027 113.001" stroke="white" stroke-opacity="0.2" stroke-width="3" stroke-linecap="round" stroke-linejoin="round"/>
<path d="M113.303 22.0012C113.303 22.0012 106.7 31.6178 98.3027 39.5071C89.9052 47.3964 84.8467 47.8651 79.8037 53.4729C74.7607 59.0807 76.5381 61.4446 67.8027 69.6389C59.0674 77.8332 42.6644 89.5732 35.2432 96.6457C27.8219 103.718 22.3027 113.001 22.3027 113.001" stroke="white" stroke-opacity="0.2" stroke-width="3" stroke-linecap="round" stroke-linejoin="round"/>
<path d="M113.303 2.00131C113.303 2.00131 104.152 13.7721 95.9229 22.0013C87.6936 30.2306 83.3027 33.9906 77.272 38.0321C71.2412 42.0736 70.0244 43.8138 60.3232 53.515C50.6221 63.2162 50.6221 65.0013 39.2803 72.471C27.9385 79.9408 20.3545 95.2542 10.3799 104.924C0.405273 114.594 2.30273 113.001 2.30273 113.001" stroke="white" stroke-opacity="0.2" stroke-width="3" stroke-linecap="round" stroke-linejoin="round"/>
<path d="M113.303 83.0012C113.303 83.0012 105.103 93.55 101.737 96.259C98.3721 98.968 83.3027 113.001 83.3027 113.001" stroke="white" stroke-opacity="0.2" stroke-width="3" stroke-linecap="round" stroke-linejoin="round"/>
<path d="M113.303 103.001C113.303 103.001 108.644 105.922 106.565 108.001C104.487 110.08 103.303 113.001 103.303 113.001" stroke="white" stroke-opacity="0.2" stroke-width="3" stroke-linecap="round" stroke-linejoin="round"/>
</svg>
